inDegrees=yes
name=IK-live
DataType=double
version=3
OpenSimVersion=4.1
endheader
time	pelvis_tilt	pelvis_list	pelvis_rotation	pelvis_tx	pelvis_ty	pelvis_tz	hip_flexion_r	hip_adduction_r	hip_rotation_r	knee_angle_r	ankle_angle_r	subtalar_angle_r	mtp_angle_r	hip_flexion_l	hip_adduction_l	hip_rotation_l	knee_angle_l	ankle_angle_l	subtalar_angle_l	mtp_angle_l	lumbar_extension	lumbar_bending	lumbar_rotation	neck_flex	neck_latbend	neck_rot	arm_flex_r	arm_add_r	arm_rot_r	elbow_flex_r	pro_sup_r	wrist_flex_r	wrist_dev_r	arm_flex_l	arm_add_l	arm_rot_l	elbow_flex_l	pro_sup_l	wrist_flex_l	wrist_dev_l
0	-15.13598584255288	-0.8697498146171131	-171.0892234237014	0.2341366603171506	0.04326292228651554	-1.326684523481465	-22.57117169827992	-1.591976316804377	-3.241458145969817	5.899560354604904	2.451982624139334	1.987972377786656	0	-24.74788768789517	-3.395140484746916	-11.58000132048591	9.793848132074926	-0.4439473045988533	4.250290820099795	0	-21.37711699760957	1.659277491615732	3.206407148933037	0	0	0	71.5256991694294	-14.99523645081225	-0.8696737064585361	76.68999200368529	45.01025183319527	0	4.952229678369974	72.66730572607445	-15.04771666708493	-0.6009395689382218	76.74755498081115	44.99789749512208	0	4.952229678369974
2.9751444	21.00846633142988	23.33486523414909	39.71273373037732	0.2341366603171506	0.04326292228651554	-1.326684523481465	-22.57117169827992	-1.591976316804377	-3.241458145969817	5.899560354604904	2.451982624139334	1.987972377786656	0	-24.74788768789517	-3.395140484746916	-11.58000132048591	9.793848132074926	-0.4439473045988533	4.250290820099795	0	-21.37711699760957	1.659277491615732	3.206407148933037	0	0	0	0.783547096493016	-15.17648790594347	33.30705447321261	7.067151955453896	24.88525724607833	0	0.01746010259054837	5.874224795260101	-13.22993877320665	43.89241627606432	6.883449757654556	33.48556738550663	0	0.01746010259054837
4.3753312	-25.83182837819213	3.315229846745269	-212.2852709368959	0.2341366603171506	0.04326292228651554	-1.326684523481465	-22.57117169827992	-1.591976316804377	-3.241458145969817	5.899560354604904	2.451982624139334	1.987972377786656	0	-24.74788768789517	-3.395140484746916	-11.58000132048591	9.793848132074926	-0.4439473045988533	4.250290820099795	0	-21.37711699760957	1.659277491615732	3.206407148933037	0	0	0	0.7834413073091057	-15.1764883694632	33.30719274349172	7.064411423822278	24.88488650984178	0	0.01728793103463474	5.874128519419577	-13.22993412308466	43.89262312911494	6.880589232294083	33.48538810095663	0	0.01728793103463474
5.2747356	-27.80422885826395	-3.103901528394755	-211.1434775685319	0.2341366603171506	0.04326292228651554	-1.326684523481465	-22.57117169827992	-1.591976316804377	-3.241458145969817	5.899560354604904	2.451982624139334	1.987972377786656	0	-24.74788768789517	-3.395140484746916	-11.58000132048591	9.793848132074926	-0.4439473045988533	4.250290820099795	0	-21.37711699760957	1.659277491615732	3.206407148933037	0	0	0	0.7844580201286023	-15.17648391645181	33.30587017669158	7.082101077380811	24.88829698690881	0	0.01884496099598543	5.875053951452934	-13.22997879644329	43.89065176680489	6.898740034544562	33.48706478355361	0	0.01884496099598543
5.4526079	-29.28278405150849	-0.7114781197483402	-215.3103301220267	0.2341366603171506	0.04326292228651554	-1.326684523481465	-22.57117169827992	-1.591976316804377	-3.241458145969817	5.899560354604904	2.451982624139334	1.987972377786656	0	-24.74788768789517	-3.395140484746916	-11.58000132048591	9.793848132074926	-0.4439473045988533	4.250290820099795	0	-21.37711699760957	1.659277491615732	3.206407148933037	0	0	0	0.7844576605811787	-15.17648391839865	33.30587094881869	7.082014747912565	24.88829248162207	0	0.01884240804316859	5.87505363367868	-13.22997877690708	43.89065307701616	6.898648258228381	33.48706294145541	0	0.01884240804316859
5.6255159	-27.50684762354769	11.80802894562764	-234.8633809296159	0.2341366603171506	0.04326292228651554	-1.326684523481465	-22.57117169827992	-1.591976316804377	-3.241458145969817	5.899560354604904	2.451982624139334	1.987972377786656	0	-24.74788768789517	-3.395140484746916	-11.58000132048591	9.793848132074926	-0.4439473045988533	4.250290820099795	0	-21.37711699760957	1.659277491615732	3.206407148933037	0	0	0	0.7848524864528338	-15.17648219201597	33.30535904694696	7.089434903511466	24.88960940458172	0	0.01944294929563529	5.875413067888251	-13.22999609624448	43.8898904103367	6.906302746952025	33.48770961696497	0	0.01944294929563529
5.8004253	-3.464805917485003	21.58000306986984	-272.1290739435168	0.2341366603171506	0.04326292228651554	-1.326684523481465	-22.57117169827992	-1.591976316804377	-3.241458145969817	5.899560354604904	2.451982624139334	1.987972377786656	0	-24.74788768789517	-3.395140484746916	-11.58000132048591	9.793848132074926	-0.4439473045988533	4.250290820099795	0	-21.37711699760957	1.659277491615732	3.206407148933037	0	0	0	0.7821049375590499	-15.17649421766864	33.30892745466111	7.041660675918747	24.88043929981293	0	0.01526299616209253	5.872912016302464	-13.22987545296399	43.89520713127954	6.857255662502704	33.48319846258826	0	0.01526299616209253
5.9753031	15.68376897741219	14.97025876809504	63.99256006353351	0.2341366603171506	0.04326292228651554	-1.326684523481465	-22.57117169827992	-1.591976316804377	-3.241458145969817	5.899560354604904	2.451982624139334	1.987972377786656	0	-24.74788768789517	-3.395140484746916	-11.58000132048591	9.793848132074926	-0.4439473045988533	4.250290820099795	0	-21.37711699760957	1.659277491615732	3.206407148933037	0	0	0	0.7841102107008109	-15.17648544188818	33.30632372878038	7.076687797892038	24.88712817217319	0	0.01831139665061865	5.874737404577419	-13.22996349299511	43.89132790187197	6.893228846126934	33.48648889943745	0	0.01831139665061865
6.1501863	25.25483138973011	3.962655363605927	36.77152149417991	0.2341366603171506	0.04326292228651554	-1.326684523481465	-22.57117169827992	-1.591976316804377	-3.241458145969817	5.899560354604904	2.451982624139334	1.987972377786656	0	-24.74788768789517	-3.395140484746916	-11.58000132048591	9.793848132074926	-0.4439473045988533	4.250290820099795	0	-21.37711699760957	1.659277491615732	3.206407148933037	0	0	0	0.7854210540883299	-15.17647970481324	33.30462180796463	7.098745209646057	24.89149282641784	0	0.02029945298205701	5.875930670308882	-13.23002104823984	43.88879268376802	6.915832118861656	33.48863817962949	0	0.02029945298205701
6.3250545	34.86928973887457	-7.037114665612337	19.65065129136737	0.2341366603171506	0.04326292228651554	-1.326684523481465	-22.57117169827992	-1.591976316804377	-3.241458145969817	5.899560354604904	2.451982624139334	1.987972377786656	0	-24.74788768789517	-3.395140484746916	-11.58000132048591	9.793848132074926	-0.4439473045988533	4.250290820099795	0	-21.37711699760957	1.659277491615732	3.206407148933037	0	0	0	0.7880229959257677	-15.17646830742338	33.30123586363826	7.144347892581171	24.90023812746873	0	0.02429540782657678	5.878298984589067	-13.23013538878981	43.88374497712218	6.962633391607373	33.49293563348655	0	0.02429540782657678
6.5029774	32.8880454337706	-1.704873541205766	31.34933259493515	0.2341366603171506	0.04326292228651554	-1.326684523481465	-22.57117169827992	-1.591976316804377	-3.241458145969817	5.899560354604904	2.451982624139334	1.987972377786656	0	-24.74788768789517	-3.395140484746916	-11.58000132048591	9.793848132074926	-0.4439473045988533	4.250290820099795	0	-21.37711699760957	1.659277491615732	3.206407148933037	0	0	0	0.7873748572344287	-15.17647114612015	33.30207913219394	7.132916623764994	24.89805881131733	0	0.02329919592999873	5.877709030512797	-13.23010691050484	43.88500212551416	6.950898143596325	33.491865009155	0	0.02329919592999873
6.6748758	16.12574037847165	9.078959826626788	67.34411995380067	0.2341366603171506	0.04326292228651554	-1.326684523481465	-22.57117169827992	-1.591976316804377	-3.241458145969817	5.899560354604904	2.451982624139334	1.987972377786656	0	-24.74788768789517	-3.395140484746916	-11.58000132048591	9.793848132074926	-0.4439473045988533	4.250290820099795	0	-21.37711699760957	1.659277491615732	3.206407148933037	0	0	0	0.7850368204451775	-15.17648138467934	33.30511936554592	7.092490516644608	24.89022499326965	0	0.01972349514786001	5.875580854148546	-13.23000419557898	43.88953328199846	6.909429921251951	33.48801277037229	0	0.01972349514786001
6.8497553	-12.20688381803951	15.26078801677184	-236.4251899873437	0.2341366603171506	0.04326292228651554	-1.326684523481465	-22.57117169827992	-1.591976316804377	-3.241458145969817	5.899560354604904	2.451982624139334	1.987972377786656	0	-24.74788768789517	-3.395140484746916	-11.58000132048591	9.793848132074926	-0.4439473045988533	4.250290820099795	0	-21.37711699760957	1.659277491615732	3.206407148933037	0	0	0	0.7820850841025917	-15.17649430634064	33.30895462689753	7.041114149447576	24.88035865403238	0	0.01522386989573157	5.872893982950434	-13.22987456337021	43.89524828317526	6.85669090363142	33.48316016031193	0	0.01522386989573157
7.0246812	-21.81006579149674	1.721976898719029	-211.2507628985154	0.2341366603171506	0.04326292228651554	-1.326684523481465	-22.57117169827992	-1.591976316804377	-3.241458145969817	5.899560354604904	2.451982624139334	1.987972377786656	0	-24.74788768789517	-3.395140484746916	-11.58000132048591	9.793848132074926	-0.4439473045988533	4.250290820099795	0	-21.37711699760957	1.659277491615732	3.206407148933037	0	0	0	0.7832947436547395	-15.17648901088907	33.307383063294	7.061871904232436	24.88439722284227	0	0.01706480002259102	5.873995101724129	-13.22992768819791	43.89290669173868	6.877982888295686	33.48514741574839	0	0.01706480002259102
7.1755492	-26.48619812452834	-9.598893961179341	-195.4657834873076	0.2341366603171506	0.04326292228651554	-1.326684523481465	-22.57117169827992	-1.591976316804377	-3.241458145969817	5.899560354604904	2.451982624139334	1.987972377786656	0	-24.74788768789517	-3.395140484746916	-11.58000132048591	9.793848132074926	-0.4439473045988533	4.250290820099795	0	-21.37711699760957	1.659277491615732	3.206407148933037	0	0	0	0.784876464911257	-15.17648208209264	33.30532445457644	7.089777117041247	24.88971685696999	0	0.01949581906028621	5.875434787839456	-13.22999719906598	43.88983756982773	6.906631681721913	33.48776094600277	0	0.01949581906028621
